<svg width="251" height="157" viewBox="0 0 251 157" fill="none" xmlns="http://www.w3.org/2000/svg">
<g clip-path="url(#clip0_173_8)">
<path fill-rule="evenodd" clip-rule="evenodd" d="M0.885808 13.2594C-1.61282 6.92027 3.04371 0.0717773 9.85814 0.0717773H52.1644C56.1395 0.0717773 59.6603 2.44894 61.1367 6.12788L94.8114 90.5738C95.72 92.8378 95.72 95.3847 94.8114 97.7053L73.6299 150.739C70.393 158.832 58.922 158.832 55.6852 150.739L0.885808 13.2594ZM82.6051 12.9764C80.3336 6.69388 84.9901 0.0717773 91.691 0.0717773H128.546C132.634 0.0717773 136.269 2.61874 137.632 6.41088L168.24 90.8568C168.978 92.951 168.978 95.2715 168.24 97.4223L149.841 148.192C146.774 156.682 134.735 156.682 131.669 148.192L82.6051 12.9764ZM165.344 0.0717773C158.529 0.0717773 153.873 6.92027 156.371 13.2594L211.171 150.739C214.408 158.832 225.879 158.832 229.116 150.739L250.297 97.7053C251.206 95.3847 251.206 92.8378 250.297 90.5738L216.622 6.12788C215.146 2.44894 211.625 0.0717773 207.65 0.0717773H165.344Z" fill="url(#paint0_linear_173_8)"/>
</g>
<defs>
<linearGradient id="paint0_linear_173_8" x1="125.761" y1="-36.9356" x2="300.218" y2="196.591" gradientUnits="userSpaceOnUse">
<stop stop-color="#F213A4"/>
<stop offset="1" stop-color="#5204BF"/>
</linearGradient>
<clipPath id="clip0_173_8">
<rect width="251" height="157" fill="white"/>
</clipPath>
</defs>
</svg>
